<svg xmlns="http://www.w3.org/2000/svg" xmlns:xlink="http://www.w3.org/1999/xlink" viewBox="0 0 429.03 495.4"><defs><style>.a{fill:#f27a69;}.b{fill:#f58368;}.c{fill:url(#a);}</style><linearGradient id="a" x1="2436.54" y1="-2827.43" x2="2898.76" y2="-2703.58" gradientTransform="translate(1275.69 3940.71) rotate(-60)" gradientUnits="userSpaceOnUse"><stop offset="0.22" stop-color="#f16e72"/><stop offset="0.53" stop-color="#f2786b"/><stop offset="0.99" stop-color="#f58e5c"/></linearGradient></defs><path className="a" d="M235,315.43q-19.12-54-38.31-107.88c-5.11-14.39-10.34-28.73-15.14-43.22-1.57-4.76-4-6.4-9-6.19-9.29.4-18.6.08-27.9.13-7.5,0-7.53.07-10,7.1q-17.48,49.47-34.93,99c-6.63,18.85-13.13,37.75-20,57.44,11.35,0,21.89,0,32.44,0,3.43,0,5-1.4,6-4.78,2.66-9.49,5.9-18.8,8.62-28.27,1.11-3.84,2.56-5.76,7.13-5.66,16,.34,32.06.28,48.09,0,4.83-.07,6.54,1.82,7.72,6.35,2.4,9.21,5.83,18.15,8.46,27.31,1,3.63,2.55,5.17,6.52,5.07,10.24-.27,20.49-.09,31.79-.09C235.94,319.15,235.66,317.22,235,315.43ZM175.94,254.3c-11.52,0-23,0-34.56,0-4.09,0-3.61-1.73-2.64-4.81,4.48-14.21,8.64-28.53,12.91-42.81,1.91-6.36,3.81-12.72,6.25-20.9,4.46,10.14,6.28,18.8,8.88,27.2,3.84,12.42,7.7,24.84,11.82,37.18C179.64,253.26,179,254.3,175.94,254.3Z"/><path className="b" d="M339.07,239.13a62.53,62.53,0,0,0-3.51-18.66c-3.57-11-11.11-17.23-22.2-20.05-17.59-4.47-34-.17-50.22,6-2.31.87-2.79,2.27-2.28,4.41,1.37,5.82,3.2,6.6,9.26,3.93,10.34-4.54,21-7.14,32.45-6.45,11.14.67,19.37,6.62,23.15,16.87,2.5,6.76,2.11,13.78,2.33,20.79.12,3.84-1.54,4.93-5.11,4.93-9.89,0-19.68,1.6-29.59,1.78-11,.2-21.21,3.72-30.64,9.41-18.17,11-18.47,36.5-6.72,51,11.15,13.77,46.25,14.63,59.66.93,3.56-3.64,6.85-7.55,11-12.17,2.42,6.69,3.3,11.35,3.2,16.19-.06,2.93,1.67,3.59,4.3,3.81,4.69.41,5.07-2.21,5.06-5.87C339.14,290.34,339.29,264.73,339.07,239.13Zm-11.22,25.36c-.17,2.55,0,5.12,0,7.68-.42,14.66-4.11,27.82-17.81,35.74-11.25,6.5-23.29,8.29-35.8,4.08-8.89-3-13.26-9.39-14-18.5-1.37-17.09,5.56-24.87,21.33-29,13.54-3.53,27.66-4,41.68-4.27C326.33,260.18,328.07,261,327.85,264.49Z"/><path className="c" d="M214.51,0,0,123.85v247.7L214.51,495.4,429,371.55V123.85ZM398,141.76V353.63L214.51,459.57,31,353.63V141.76L214.51,35.83Z"/></svg>