<svg xmlns="http://www.w3.org/2000/svg" xmlns:xlink="http://www.w3.org/1999/xlink" viewBox="0 0 445.26 514.14"><defs><style>.a{fill:url(#a);}.b{fill:url(#b);}.c{fill:url(#c);}.d{fill:url(#d);}.e{fill:url(#e);}.f{fill:url(#f);}</style><linearGradient id="a" x1="6617.23" y1="9472.71" x2="6266.07" y2="9121.55" gradientTransform="translate(6664.28 9554.2) rotate(180)" gradientUnits="userSpaceOnUse"><stop offset="0.22" stop-color="#f16e72"/><stop offset="0.53" stop-color="#f2786b"/><stop offset="0.99" stop-color="#f58e5c"/></linearGradient><linearGradient id="b" x1="244.99" y1="191.55" x2="378.54" y2="325.11" gradientTransform="matrix(1, 0, 0, 1, 0, 0)" xlink:href="#a"/><linearGradient id="c" x1="66.38" y1="191.42" x2="201.03" y2="326.07" gradientTransform="matrix(1, 0, 0, 1, 0, 0)" xlink:href="#a"/><linearGradient id="d" x1="252.94" y1="244.18" x2="291.63" y2="282.88" gradientTransform="matrix(1, 0, 0, 1, 0, 0)" xlink:href="#a"/><linearGradient id="e" x1="206.56" y1="244.24" x2="245.21" y2="282.89" gradientTransform="matrix(1, 0, 0, 1, 0, 0)" xlink:href="#a"/><linearGradient id="f" x1="161.27" y1="242.37" x2="202.46" y2="283.56" gradientTransform="matrix(1, 0, 0, 1, 0, 0)" xlink:href="#a"/></defs><path className="a" d="M0,385.61,222.63,514.14,445.26,385.61V128.54L222.63,0,0,128.54ZM32.2,147.13,222.63,37.19,413.06,147.13V367L222.63,477,32.2,367Z"/><path className="b" d="M350,259.12c-.51-1-.59-1.48-.81-1.56-25.17-9.37-28.49-14.2-28.5-41.45,0-9.77.14-19.54-.05-29.3-.27-13.43-5.65-20.07-18.88-21.7-6.09-.75-8-2.78-7.7-8.74.82-17.77-3.64-17,17-15.47,25.63,1.92,37.86,15.63,38.18,41.5.14,11.45,0,22.91.07,34.36.05,18.87,6.17,26.64,25.06,28.47,7.95.77,9.87,3.58,8.84,10.45a6.81,6.81,0,0,0,0,1c0,13.51,0,13.51-13.22,15.57s-20.35,9.95-20.6,23.25c-.25,13.47-.32,26.95-.06,40.42.51,26.09-14.52,35.46-34.76,39.35a18.09,18.09,0,0,1-4,.32c-5.2-.18-11.93,4.54-15.17-.22-3.41-5-.88-12.41-1.09-18.76-.11-3.23,2.22-3.6,4.65-4.05a54.71,54.71,0,0,0,8.81-2.15c8.52-3.15,12.85-9.43,12.92-18.51.09-11.79,0-23.57.08-35.36C320.88,274,327.94,264.88,350,259.12Z"/><path className="c" d="M145.05,352.07c-17.67-3.4-21.83-8.77-22-26.72-.14-11.44.07-22.88-.1-34.33-.26-18.42-10-28.85-28.68-31,0-4.83,4.11-3.46,6.65-4.28,15.2-4.92,21.79-13.65,22-29.78.17-11.44-.11-22.89.12-34.33.36-18.25,5.21-23.84,23-26.83,3.12-.53,5.67-.75,6.47-4.79,3.38-16.92.48-20.46-16.35-19.26-.67,0-1.35,0-2,.1-21.63,3.39-40.85,12.21-39.83,43.7.34,10.42-.5,20.89.16,31.28,1.31,20.4-8.8,27.05-26.33,29.76a47,47,0,0,1-5,.3c-2.51.11-3.4,1.57-3.55,3.91-.4,6.33-1.47,14.35.33,20.3,1.32,4.39,8.82,2.39,14.27,2.44,2.67,0,5.19,1.3,7.79,1.95,9.6,5.83,13.17,14.29,12.56,25.48-.65,12.08-.38,24.23,0,36.34.61,20.08,9.85,31.53,29.15,37.25,4.24,1.26,8.56,1.58,12.86,2.3,19.89,3.33,15.27.18,16.12-14.82C153,354.93,150.76,353.17,145.05,352.07Z"/><path className="d" d="M254.73,279.42c5.58.72,10.69,3.76,16.57,3.24,3.65-.31,6.8-1.13,7.92-4.9s-1.89-5.52-4.4-7.07c-3.7-2.29-7.86-3.87-11.47-6.27-7.82-5.19-10.79-12.55-8.42-19.72s8.13-10.9,17.31-11.14c4.7-.12,9.36-.11,13.88,1.79,2.69,1.13,5.21,1.85,3.77,5.54-1.27,3.27-2.39,6-7.2,4.45-5.53-1.75-13.27-4.84-15.58,2.88-2.1,7,6.57,7.82,11,10.8,1.39.93,2.95,1.6,4.34,2.54,7.88,5.29,10.85,11.51,8.91,18.5-2.05,7.42-8.47,12.14-17.48,12.68a70.41,70.41,0,0,1-9.07-.07C254.05,291.9,253.21,290.76,254.73,279.42Z"/><path className="e" d="M208.32,279.35c5.57.89,10.71,3.86,16.6,3.29,3.45-.34,7.09-.38,8.09-4.45s-2.16-6.07-5.06-7.79c-3.75-2.23-7.86-3.89-11.43-6.34-7.66-5.24-10.08-11.49-7.84-18.86,2.31-7.64,7.5-11.3,16.75-11.64,5-.18,10,0,14.85,1.94,3.23,1.25,4.45,2.82,3,5.94-1.08,2.38-2,5.46-5.67,4.11a26.46,26.46,0,0,0-10.84-1.69,6.61,6.61,0,0,0-6.21,4.35c-1.25,3.21,1,5.15,3.27,6.56,4,2.46,8.35,4.32,12.28,6.87,7.82,5.09,10.8,11.67,8.82,18.53-2.13,7.38-8.56,12.06-17.57,12.57a68.64,68.64,0,0,1-9.07-.09C207.62,291.87,206.76,290.69,208.32,279.35Z"/><path className="f" d="M182.88,292.81c-21.46,0-32.67-17.31-27-39.06,5.37-20.51,23.82-22.95,38.22-18.5,3.22,1,5.4,2.08,3.66,6.37-1.47,3.62-2.4,5.48-7.07,4.08-11.89-3.58-16-2.27-20.14,4.91-5,8.61-4,22.53,2,28.43,5.68,5.54,12.51,3.48,19.09,2.6,2.12-.28,4.79-2.53,5.38,1.47.41,2.82,1.24,6-2.49,7.86C190.43,293,186,292.47,182.88,292.81Z"/></svg>