<svg xmlns="http://www.w3.org/2000/svg" viewBox="0 0 710.53 710.53"><defs><style>.a{fill:#252525;}.b{fill:#a2bc70;}.c{fill:#fff;}</style></defs><rect className="a" width="710.53" height="710.53" rx="121.91"/><path className="b" d="M333.89,402.42c5.19,37-17.11,72.87-55,85.65-74.85,25.26-152.28-.6-167.49-99.87C106.36,355,107.82,322,119,290c24.79-71.19,110.26-100.31,174-59.49,22.92,14.69,39.21,40.45,40.47,65.3l-48.65,9c-3.89-7.27-7.08-14.37-11.26-20.84-22.22-34.44-66.88-36.34-91.93-3.78a74.14,74.14,0,0,0-11.38,20.37c-13,37.43-13.11,75.25,1.1,112.18,13.36,34.74,43.13,47.95,78.45,36.52,17.58-5.69,29.38-17.58,32.51-36,1.51-8.92,5.25-11.35,13.57-11C308.6,402.79,321.39,402.42,333.89,402.42Z"/><path className="b" d="M601.89,295.49l-50.4,9.35c-2.85-5.63-5.34-10.95-8.18-16.06-22.86-41.2-75.33-43.86-98.37-2.87-25.65,45.64-24,93.88.22,140,12.35,23.5,34.87,29.91,60.44,25.92,27.27-4.25,42.24-20.53,45.82-48.46h49.16c5.23,29.54-12,62-41,78.56-71.23,40.53-156.58,5.4-177-73.46-9.89-38.14-9.89-76.7,2-114.51,23.21-73.87,108.07-105,174-64.21C582.18,244.39,595.65,266.17,601.89,295.49Z"/><path className="c" d="M88.47,0C84.3,1.53,80.19,3.21,76,4.56Q21.74,21.77,4.56,76C3.21,80.18,1.53,84.3,0,88.47V0Z"/></svg>