<svg id="Layer_1" data-name="Layer 1" xmlns="http://www.w3.org/2000/svg" viewBox="0 0 458 209.75"><defs><style>.cls-1{fill:#e47501;}.cls-2{fill:#faaa00;}.cls-3{fill:#027db7;}.cls-4{fill:gray;}</style></defs><path class="cls-1" d="M42.49,147.37H8.25c-3.32,0-4.16-.83-4.16-4.06,0-7.71.26-15.43-.06-23.12a22.24,22.24,0,0,1,4.24-14.62c5.3-7.46,72.4-86.22,76.42-92.5A6.1,6.1,0,0,1,90.46,9.8c11.48.14,23,0,34.46,0,.81,0,2,.26,2.34.8a3.11,3.11,0,0,1-.52,2.43c-5.65,8.78-78.11,95-78.78,96.11-1,1.77-.54,2.64,1.53,2.65,4.7,0,9.4,0,14.1,0,4.55,0,9.1,0,13.65,0,2.79,0,3.67.88,3.68,3.57q0,13.92,0,27.84c0,3.46-.78,4.17-4.24,4.17H42.49Z"/><path class="cls-2" d="M131.71,12.3a18.79,18.79,0,0,1,.59,3.36q0,79.43-.12,158.87c0,6.65,0,13.31,0,20,0,2.6-.67,3.37-3.32,3.39q-14.19.08-28.4,0c-2.75,0-3.22-.7-3.21-3.89q0-16.15.08-32.31,0-31,0-61.94c0-4.07-.24-4.29-4.29-4.27s-8,.08-12.07,0c-1.12,0-3.31-.37-3.36-1.76,0-1.21.43-1.55,1.06-2.53,2.23-3.52,4.7-6.9,7-10.38C90,74.23,94.27,67.58,98.61,61q12.56-19.05,25.16-38.06c2.14-3.23,4.23-6.5,6.33-9.75.24-.37.44-.77.66-1.16Z"/><path class="cls-3" d="M263.36,164.94c-3.71-4.57-6.08-6.94-17.72-18.28-10,5.58-19.41,7.79-31.9,7.79-41.86,0-68.53-28.78-68.53-73.65,0-44.69,26.84-73.47,68.7-73.47,41.18,0,67.68,28.44,67.68,73,0,20-4.39,33.52-16.21,49.44l6.08,5.92a131.38,131.38,0,0,0,10.8,9Zm-34.94-71.1c2.87,3.38,2.87,3.38,13,13,3.88-7.28,5.4-14.56,5.4-26.07,0-27.59-12.66-44.35-33.42-44.35C192.81,36.45,180.15,53,180.15,80c0,16.25,4,28.94,12,36.9a29.25,29.25,0,0,0,21.27,8.64,23.81,23.81,0,0,0,8.78-1.53c-5.24-4.74-8.27-7.45-13-11.17Z"/><path class="cls-3" d="M360.4,151.23c-.84-5.93-2.7-12.19-7.26-25.06l-15.52-45c-.17-.85-5.24-16.59-5.74-18-1.86-6.09-1.86-6.09-2.7-8.46,1,10.67,1.69,24.55,1.69,33.52V125c0,11.68.33,19.13,1.35,26.24H299c1-7.62,1.35-14.73,1.35-26.24V36.78A235.22,235.22,0,0,0,299,10.37h44.55c1.19,7.28,2.53,12.7,6.42,23.88l25.31,73,25.15-73c3.88-11.35,5.23-16.77,6.25-23.88h44.72A197.43,197.43,0,0,0,450,36.78V125c0,12.86.34,19.47,1.35,26.24H418.12c1-7.79,1.35-14.22,1.35-26.24V88.08c0-4.06.51-16.76.85-22,.5-9,.5-9,.67-11.51-3.71,13.21-5.4,19.3-7.59,25.4L397,126.34c-4.22,12-6.42,19.47-7.26,24.89Z"/><path class="cls-4" d="M158.36,193.1V174.67h6.55a14.61,14.61,0,0,1,2.64.18,5.09,5.09,0,0,1,2.15.86,4.51,4.51,0,0,1,1.39,1.78,5.94,5.94,0,0,1,.53,2.51,5.85,5.85,0,0,1-1.41,4q-1.41,1.64-5.1,1.63h-4.45v7.49Zm2.3-9.67h4.49a4.54,4.54,0,0,0,3.16-.88,3.23,3.23,0,0,0,.94-2.47,3.54,3.54,0,0,0-.55-2,2.63,2.63,0,0,0-1.46-1.09,9.19,9.19,0,0,0-2.14-.16h-4.44Z"/><path class="cls-4" d="M179.44,193.1V174.67H192v2.18H181.74v5.64h9.61v2.16h-9.61v6.28h10.67v2.17Z"/><path class="cls-4" d="M200.47,193.1V174.67h7.7a9.78,9.78,0,0,1,3.54.5,4,4,0,0,1,1.93,1.75,5.51,5.51,0,0,1,.72,2.78,4.8,4.8,0,0,1-1.2,3.31,6,6,0,0,1-3.69,1.71,6,6,0,0,1,1.38.91,12.87,12.87,0,0,1,1.91,2.46l3,5h-2.89l-2.3-3.83c-.67-1.11-1.22-2-1.66-2.54a5.18,5.18,0,0,0-1.16-1.23,3.31,3.31,0,0,0-1.05-.49,6.39,6.39,0,0,0-1.28-.09h-2.67v8.18Zm2.3-10.29h4.94a7.08,7.08,0,0,0,2.47-.35,2.66,2.66,0,0,0,1.35-1.11,3.07,3.07,0,0,0,.46-1.65,2.84,2.84,0,0,0-.89-2.15,4,4,0,0,0-2.83-.84h-5.5Z"/><path class="cls-4" d="M222.74,193.1V174.67h3.46l4.12,13.05c.38,1.22.65,2.13.83,2.73.19-.67.5-1.66.92-2.95l4.16-12.83h3.09V193.1h-2.21V177.68l-5.05,15.42H230l-5-15.69V193.1Z"/><path class="cls-4" d="M248.28,193.1V174.67h2.29V193.1Z"/><path class="cls-4" d="M270.88,174.67h2.3v10.65a13.44,13.44,0,0,1-.59,4.41,5.33,5.33,0,0,1-2.14,2.66,7.19,7.19,0,0,1-4.06,1,7.92,7.92,0,0,1-4-.9,5,5,0,0,1-2.21-2.58,13.08,13.08,0,0,1-.66-4.62V174.67h2.29v10.64a11,11,0,0,0,.42,3.54,3.39,3.39,0,0,0,1.45,1.75,4.79,4.79,0,0,0,2.51.62A4.62,4.62,0,0,0,269.8,190c.72-.82,1.08-2.38,1.08-4.69Z"/><path class="cls-4" d="M281.79,193.1V174.67h3.46l4.11,13.05c.38,1.22.65,2.13.83,2.73.2-.67.5-1.66.92-2.95l4.16-12.83h3.09V193.1h-2.21V177.68l-5,15.42H289l-5-15.69V193.1Z"/><path class="cls-4" d="M331.69,191.13a13.66,13.66,0,0,0,2.95,1.71l-.68,1.7a13.44,13.44,0,0,1-3.73-2.27,8.16,8.16,0,0,1-4.27,1.15,7.86,7.86,0,0,1-7.23-4.6,11.42,11.42,0,0,1-1-4.93,11.55,11.55,0,0,1,1.05-5,7.63,7.63,0,0,1,3-3.41,8.15,8.15,0,0,1,4.31-1.17,8,8,0,0,1,4.34,1.22,7.73,7.73,0,0,1,2.94,3.39,11.52,11.52,0,0,1,1,4.92,12,12,0,0,1-.66,4.1A8.68,8.68,0,0,1,331.69,191.13ZM326.63,188a8.32,8.32,0,0,1,3.28,1.76c1.35-1.31,2-3.27,2-5.9a9.85,9.85,0,0,0-.72-3.91,5.76,5.76,0,0,0-2.1-2.59,5.41,5.41,0,0,0-3.1-.93,5.53,5.53,0,0,0-4.26,1.87,8.06,8.06,0,0,0-1.7,5.58,8.17,8.17,0,0,0,1.68,5.52,5.44,5.44,0,0,0,4.28,1.92,5.6,5.6,0,0,0,2.33-.49,7.38,7.38,0,0,0-2.28-1.06Z"/><path class="cls-4" d="M353.65,174.67H356v10.65a13.44,13.44,0,0,1-.59,4.41,5.33,5.33,0,0,1-2.14,2.66,7.17,7.17,0,0,1-4.06,1,7.86,7.86,0,0,1-4-.9,4.94,4.94,0,0,1-2.22-2.58,13.08,13.08,0,0,1-.66-4.62V174.67h2.3v10.64a11,11,0,0,0,.42,3.54,3.32,3.32,0,0,0,1.44,1.75,4.81,4.81,0,0,0,2.51.62,4.62,4.62,0,0,0,3.61-1.22c.72-.82,1.08-2.38,1.08-4.69Z"/><path class="cls-4" d="M362.72,193.1l6.67-18.43h2.48L379,193.1h-2.62l-2-5.58h-7.27l-1.91,5.58Zm5-7.57h5.88l-1.81-5.1c-.55-1.55-1-2.82-1.23-3.82a23.8,23.8,0,0,1-.94,3.52Z"/><path class="cls-4" d="M385.58,193.1V174.67h2.29v16.26h8.56v2.17Z"/><path class="cls-4" d="M404.41,193.1V174.67h2.3V193.1Z"/><path class="cls-4" d="M420,193.1V176.85h-5.73v-2.18h13.77v2.18h-5.74V193.1Z"/><path class="cls-4" d="M440.19,193.1v-7.8l-6.7-10.63h2.8l3.42,5.56q.94,1.56,1.77,3.12c.52-1,1.15-2,1.89-3.26l3.37-5.42h2.68l-6.93,10.63v7.8Z"/></svg>