<svg width="25" height="30" viewBox="0 0 25 30" fill="none" xmlns="http://www.w3.org/2000/svg">
<g clip-path="url(#clip0_2_132)">
<path d="M12.26 4.46C13.4916 4.46 14.49 3.4616 14.49 2.23C14.49 0.998405 13.4916 0 12.26 0C11.0284 0 10.03 0.998405 10.03 2.23C10.03 3.4616 11.0284 4.46 12.26 4.46Z" fill="#00CCFF"/>
<path d="M15.67 5.98001C15.8286 6.13493 15.9545 6.32003 16.0403 6.52441C16.1262 6.7288 16.1703 6.94832 16.17 7.17001C16.1697 7.40601 16.1196 7.6393 16.0231 7.85468C15.9266 8.07005 15.7859 8.26268 15.61 8.42001V22.23C15.5633 23.0855 15.1904 23.8906 14.5682 24.4797C13.946 25.0687 13.1218 25.3971 12.265 25.3971C11.4082 25.3971 10.5839 25.0687 9.96173 24.4797C9.33955 23.8906 8.96678 23.0855 8.91998 22.23V8.39001C8.75152 8.23457 8.61704 8.04591 8.52508 7.83594C8.43313 7.62597 8.38568 7.39924 8.38568 7.17001C8.38568 6.94079 8.43313 6.71406 8.52508 6.50409C8.61704 6.29412 8.75152 6.10546 8.91998 5.95001C6.08175 6.76926 3.63477 8.58576 2.02911 11.0654C0.423455 13.545 -0.232854 16.521 0.180846 19.446C0.594546 22.371 2.05048 25.0483 4.28082 26.9854C6.51116 28.9225 9.3659 29.9891 12.32 29.9891C15.2741 29.9891 18.1288 28.9225 20.3592 26.9854C22.5895 25.0483 24.0455 22.371 24.4592 19.446C24.8729 16.521 24.2166 13.545 22.6109 11.0654C21.0052 8.58576 18.5583 6.76926 15.72 5.95001L15.67 5.98001Z" fill="#025FDF"/>
<path d="M13.8 5.98001H10.73C10.35 5.98001 10.04 6.13001 10.04 6.32001C10.04 6.50001 10.35 6.65002 10.73 6.65002H13.8C14.19 6.65002 14.4999 6.50001 14.4999 6.32001C14.4999 6.10001 14.19 5.98001 13.8 5.98001Z" fill="#025FDF"/>
<path d="M14.31 8.98001C14.1343 9.38376 13.843 9.72646 13.4728 9.96493C13.1026 10.2034 12.6703 10.3269 12.23 10.32C11.9394 10.3213 11.6519 10.3802 11.3842 10.4932C11.1164 10.6062 10.8737 10.7711 10.6701 10.9785C10.4664 11.1858 10.3059 11.4315 10.1978 11.7012C10.0896 11.9709 10.036 12.2594 10.0399 12.55V22.18C10.0399 22.7715 10.2749 23.3387 10.6931 23.7569C11.1113 24.1751 11.6785 24.41 12.2699 24.41C12.8614 24.41 13.4286 24.1751 13.8468 23.7569C14.265 23.3387 14.4999 22.7715 14.4999 22.18V9.02999C14.5015 9.00677 14.495 8.98372 14.4815 8.96481C14.4679 8.94589 14.4482 8.93231 14.4257 8.92639C14.4032 8.92046 14.3793 8.92258 14.3582 8.93237C14.3371 8.94216 14.32 8.959 14.31 8.98001ZM11.1499 16.04C11.0387 16.04 10.9301 16.0069 10.8378 15.9449C10.7455 15.8829 10.6738 15.7948 10.6317 15.6919C10.5897 15.589 10.5792 15.4759 10.6016 15.367C10.624 15.2581 10.6783 15.1584 10.7576 15.0805C10.8369 15.0026 10.9377 14.95 11.047 14.9296C11.1563 14.9091 11.2691 14.9216 11.3712 14.9656C11.4734 15.0095 11.5602 15.0828 11.6205 15.1762C11.6808 15.2696 11.712 15.3789 11.71 15.49C11.7113 15.5644 11.6977 15.6383 11.6702 15.7074C11.6426 15.7765 11.6016 15.8394 11.5495 15.8925C11.4973 15.9455 11.4352 15.9877 11.3666 16.0164C11.298 16.0452 11.2243 16.06 11.1499 16.06V16.04ZM11.99 17.72C11.9158 17.72 11.8445 17.6905 11.792 17.638C11.7395 17.5855 11.71 17.5143 11.71 17.44C11.7086 17.4029 11.7148 17.3658 11.7284 17.3312C11.742 17.2966 11.7626 17.2652 11.7888 17.2389C11.8151 17.2126 11.8465 17.192 11.8811 17.1785C11.9157 17.1649 11.9529 17.1586 11.99 17.16C12.0643 17.16 12.1354 17.1895 12.1879 17.242C12.2404 17.2945 12.2699 17.3657 12.2699 17.44C12.2713 17.4781 12.2651 17.5161 12.2517 17.5518C12.2384 17.5875 12.2182 17.6202 12.1922 17.648C12.1662 17.6759 12.1349 17.6984 12.1002 17.7141C12.0655 17.7299 12.0281 17.7387 11.99 17.74V17.72ZM12.82 13.81C12.598 13.81 12.3811 13.7441 12.1967 13.6205C12.0123 13.497 11.8688 13.3215 11.7843 13.1163C11.6999 12.911 11.6783 12.6853 11.7223 12.4678C11.7663 12.2503 11.874 12.0507 12.0316 11.8945C12.1893 11.7383 12.3898 11.6324 12.6077 11.5903C12.8256 11.5482 13.051 11.5719 13.2555 11.6582C13.46 11.7445 13.6343 11.8896 13.7561 12.0751C13.878 12.2606 13.9419 12.4781 13.94 12.7C13.9426 12.8483 13.9156 12.9956 13.8604 13.1333C13.8052 13.2709 13.723 13.3961 13.6186 13.5015C13.5141 13.6068 13.3896 13.6901 13.2525 13.7465C13.1153 13.803 12.9683 13.8314 12.82 13.83V13.81Z" fill="#00CCFF"/>
</g>
<defs>
<clipPath id="clip0_2_132">
<rect width="24.53" height="30" fill="white"/>
</clipPath>
</defs>
</svg>
